<?xml version="1.0"?>
<svg xmlns="http://www.w3.org/2000/svg" xmlns:xlink="http://www.w3.org/1999/xlink" xmlns:svgjs="http://svgjs.com/svgjs" version="1.1" width="512" height="512" x="0" y="0" viewBox="0 0 462.202 462.202" style="enable-background:new 0 0 512 512" xml:space="preserve"><g>
<g xmlns="http://www.w3.org/2000/svg">
	<g>
		<path d="M118.502,247.164c-3.1,0-5.6,2.5-5.6,5.6c0,3.1,2.5,5.6,5.6,5.6c3.2,0,5.7-2.5,5.6-5.6    C124.102,249.664,121.602,247.164,118.502,247.164z" fill="#0065fc" data-original="#000000" style=""/>
	</g>
</g>
<g xmlns="http://www.w3.org/2000/svg">
	<g>
		<path d="M226.002,12.764c-47.6,0.1-86.1,38.6-86.2,86c0,1.8,0,3.8,0.2,6.1c2,26.9,16.4,51.4,39.1,66.1c0.5,0.4,1,1,1.4,1h91.4    c0.6,0,1.4-1.2,2.2-1.8c23.9-16,38.2-42.9,38.1-71.6C312.102,51.064,273.502,12.664,226.002,12.764z M254.602,151.964    c-21,8.1-44.8,3-60.7-13c-3.9-3.7-7.1-8.1-9.6-12.9h-10.4c-5.5,0-10-4.5-10-10s4.4-10,10-10h3.8c-0.3-2-0.5-4-0.5-6h-3.3    c-5.5,0-10-4.5-10-10s4.5-10,10-10h6.4c0.2-0.6,0.4-1.1,0.6-1.7c11.4-29.3,44.4-43.9,73.7-32.5c5.1,2,7.7,7.8,5.7,12.9    c-2,5.1-7.8,7.7-12.9,5.7c-13.6-5.3-29.1-2.1-39.4,8.2c-2.3,2.3-4.2,5.4-5.8,7.4h44.6c5.5,0,10,4.5,10,10s-4.5,10-10,10h-49.6    c0.1,2,0.4,4,0.8,6h43.7c5.5,0,10,4.5,10,10s-4.5,10-10,10h-32.2c10.3,10,24.9,12.1,37.9,7.1c5.1-1.9,10.9,0.7,12.9,5.8    C262.402,144.164,259.802,149.964,254.602,151.964z" fill="#0065fc" data-original="#000000" style=""/>
	</g>
</g>
<g xmlns="http://www.w3.org/2000/svg">
	<g>
		<path d="M389.002,277.164v-6.9c-1-14-5.2-29.3-12.5-44.4l-7.1-13.7c-13.1-21.6-32.1-40.4-55.2-54.4c-3.3,5.2-7.2,10-11.6,14.3    h10.4c5.5,0,10,4.5,10,10s-4.5,10-10,10h-173.3c-5.5,0-10-4.5-10-10s4.5-10,10-10h9.5c-15.5-16.1-25.5-36.7-28.5-58.9    c-14.2-4.6-21.9-5.3-25.9-5.2c-0.1,0-0.3,0-0.4,0c-0.2,3.8,1.3,17.7,2.2,25.4l2.6,24c0.1,0.4,0.1,0.7,0.1,1.1    c0.1,3.2-1.1,6.3-3.4,8.6c-0.3,0.3-0.6,0.5-0.9,0.8c-19.7,15.2-34.9,33.4-45.1,53.8c-0.5,1-1.1,1.8-1.9,2.6    c-1.9,2.1-4.4,3.4-7.1,3.9l-32.3,6.5c-5.1,1-8.7,5.5-8.6,10.6v64.5c0,5.1,3.6,9.6,8.6,10.6l32.2,6.5c2.7,0.5,5.2,1.8,7.1,3.9    c0.8,0.8,1.4,1.7,1.9,2.7c6.1,12.6,14,24.3,23.4,34.6c1.2,1.3,2,2.9,2.4,4.7c0.8,2.9,0.4,6-1.1,8.5c-9.5,19.3-4.4,42.6,12.2,56.2    c10.4,8.3,23.6,12.6,36.9,11.9c13.6-0.6,26.5-5.9,36.5-15.2l9.8-9.3c2.3-2.2,5.3-3.4,8.5-3.3c0.6,0,1.1,0,1.7,0.1    c26.1,4.4,52.7,3.6,78.4-2.5c0.8-0.2,1.5-0.3,2.3-0.3c3.1-0.1,6.2,1.1,8.5,3.3l13,12.4c10,9.4,23.2,14.5,36.9,14.4h1.9    c14.5,0,27.9-6.4,37.8-16.7c15.6-16.5,16.4-42.1,1.9-61c-0.4-0.5-0.7-1-1-1.6c-3.1-6.2-0.5-10.8,1.2-12.8    C379.302,333.164,389.002,305.664,389.002,277.164z M118.502,278.264c-14.1,0-25.6-11.4-25.6-25.6c0-14.1,11.4-25.6,25.6-25.6    s25.7,11.5,25.6,25.6C144.102,266.764,132.602,278.264,118.502,278.264z" fill="#0065fc" data-original="#000000" style=""/>
	</g>
</g>
<g xmlns="http://www.w3.org/2000/svg">
	<g>
		<path d="M443.902,118.764c-3.9-3.9-10.2-3.9-14.1,0c-3.9,3.9-3.9,10.2,0,14.1c16.2,16.6,16,43.2-0.6,59.4c-16.3,16-42.5,16-58.8,0    c-0.2-0.2-0.3-0.3-0.5-0.4l17.4,31.5c4.2,0.9,8.5,1.3,12.9,1.3c34.2,0,62-27.7,62-62    C462.102,146.264,455.602,130.464,443.902,118.764z" fill="#0065fc" data-original="#000000" style=""/>
	</g>
</g>
<g xmlns="http://www.w3.org/2000/svg">
</g>
<g xmlns="http://www.w3.org/2000/svg">
</g>
<g xmlns="http://www.w3.org/2000/svg">
</g>
<g xmlns="http://www.w3.org/2000/svg">
</g>
<g xmlns="http://www.w3.org/2000/svg">
</g>
<g xmlns="http://www.w3.org/2000/svg">
</g>
<g xmlns="http://www.w3.org/2000/svg">
</g>
<g xmlns="http://www.w3.org/2000/svg">
</g>
<g xmlns="http://www.w3.org/2000/svg">
</g>
<g xmlns="http://www.w3.org/2000/svg">
</g>
<g xmlns="http://www.w3.org/2000/svg">
</g>
<g xmlns="http://www.w3.org/2000/svg">
</g>
<g xmlns="http://www.w3.org/2000/svg">
</g>
<g xmlns="http://www.w3.org/2000/svg">
</g>
<g xmlns="http://www.w3.org/2000/svg">
</g>
</g></svg>
