<?xml version="1.0"?>
<svg xmlns="http://www.w3.org/2000/svg" xmlns:xlink="http://www.w3.org/1999/xlink" xmlns:svgjs="http://svgjs.com/svgjs" version="1.1" width="512" height="512" x="0" y="0" viewBox="0 0 512 512" style="enable-background:new 0 0 512 512" xml:space="preserve" class=""><g><g xmlns="http://www.w3.org/2000/svg"><g><g><path d="m496 394.654c-160 50.434-320-55.742-480-5.308v-272c160-50.434 320 55.742 480 5.308z" fill="#deebff" data-original="#4e901e" style="" class=""/><path d="m472 201.083v128c-26.51 5.889-48 28.134-48 54.752-112 7.349-224-39.019-336-31.67 0-26.4-21.49-47.137-48-41.248v-128c26.511-5.889 48-28.134 48-54.752 112-7.349 224 39.019 336 31.67 0 26.402 21.488 47.137 48 41.248z" fill="#0065fc" data-original="#91cc04" style="" class=""/></g><circle cx="256" cy="256" fill="#deebff" r="72" data-original="#ffda44" style="" class=""/></g><g><path d="m500.73 116.2a8.022 8.022 0 0 0 -7.14-1.18c-78.14 24.64-158.5 10.64-236.22-2.9-79.6-13.87-161.92-28.21-243.78-2.4a7.989 7.989 0 0 0 -5.59 7.63v272a8 8 0 0 0 10.41 7.63c78.13-24.64 158.5-10.64 236.22 2.9 47.45 8.27 95.86 16.7 144.56 16.7 33.01 0 66.15-3.87 99.22-14.3a7.989 7.989 0 0 0 5.59-7.63v-272a8 8 0 0 0 -3.27-6.45zm-12.73 272.52c-76.38 22.27-154.76 8.61-230.63-4.6-47.45-8.27-95.86-16.7-144.56-16.7-29.55 0-59.2 3.1-88.81 11.23v-255.37c76.38-22.27 154.76-8.61 230.63 4.6 76.23 13.28 154.95 26.99 233.37 5.47z" fill="#0065fc" data-original="#000000" style="" class=""/><path d="m477.01 194.84a8.06 8.06 0 0 0 -6.74-1.57 29.863 29.863 0 0 1 -25.66-5.63c-8.01-6.43-12.61-16.57-12.61-27.81a8.007 8.007 0 0 0 -8.52-7.98c-55.06 3.62-111.51-6.22-166.11-15.73-55.52-9.67-112.94-19.67-169.89-15.94a8 8 0 0 0 -7.48 7.98c0 21.83-17.55 41.58-41.73 46.95a7.992 7.992 0 0 0 -6.27 7.81v128a8 8 0 0 0 9.73 7.81 29.828 29.828 0 0 1 25.66 5.64c8.02 6.42 12.61 16.56 12.61 27.79a8.007 8.007 0 0 0 8.52 7.99c55.06-3.62 111.51 6.22 166.11 15.73 47.36 8.25 96.09 16.74 144.74 16.74 8.39 0 16.78-.25 25.15-.8a8.006 8.006 0 0 0 7.48-7.99c0-21.82 17.55-41.57 41.73-46.94a7.992 7.992 0 0 0 6.27-7.81v-128a8.016 8.016 0 0 0 -2.99-6.24zm-13.01 128.11c-25.52 8.05-44.21 29.1-47.49 53.29-52.83 2.39-106.84-7.01-159.14-16.12-47.36-8.25-96.09-16.74-144.74-16.74q-8.625 0-17.26.37a50.093 50.093 0 0 0 -17.97-31.86 44.9 44.9 0 0 0 -29.4-9.98v-112.86c25.52-8.05 44.21-29.1 47.49-53.29 52.84-2.4 106.84 7.01 159.14 16.12 52.96 9.23 107.65 18.75 162 16.37a50.117 50.117 0 0 0 17.97 31.87 44.984 44.984 0 0 0 29.4 9.97z" fill="#0065fc" data-original="#000000" style="" class=""/><path d="m256 176a80 80 0 1 0 80 80 80.093 80.093 0 0 0 -80-80zm0 144a64 64 0 1 1 64-64 64.072 64.072 0 0 1 -64 64z" fill="#0065fc" data-original="#000000" style="" class=""/><path d="m280 256v24a8 8 0 0 1 -8 8h-8a8 8 0 0 1 -16 0h-8a8 8 0 0 1 0-16h24v-8h-24a8 8 0 0 1 -8-8v-24a8 8 0 0 1 8-8h8a8 8 0 0 1 16 0h8a8 8 0 0 1 0 16h-24v8h24a8 8 0 0 1 8 8z" fill="#0065fc" data-original="#000000" style="" class=""/></g></g></g></svg>
