<?xml version="1.0"?>
<svg xmlns="http://www.w3.org/2000/svg" xmlns:xlink="http://www.w3.org/1999/xlink" xmlns:svgjs="http://svgjs.com/svgjs" version="1.1" width="512" height="512" x="0" y="0" viewBox="0 0 512 512" style="enable-background:new 0 0 512 512" xml:space="preserve" class=""><g>
<g xmlns="http://www.w3.org/2000/svg">
	<polygon style="" points="47.382,216.965 60.027,242.517 88.316,246.623 67.849,266.569 72.672,294.727    47.382,281.43 22.157,294.727 26.98,266.569 6.513,246.623 34.737,242.517  " fill="#0065fc" data-original="#1138f7" class=""/>
	<path style="" d="M72.672,301.245c-1.036,0-2.079-0.248-3.031-0.75l-22.253-11.7l-22.188,11.7   c-2.197,1.16-4.856,0.958-6.87-0.489c-2.008-1.46-3.011-3.937-2.594-6.381l4.25-24.775L1.97,251.29   c-1.779-1.734-2.418-4.322-1.649-6.681c0.769-2.36,2.809-4.074,5.26-4.439l24.841-3.611l11.126-22.481   c2.203-4.445,9.484-4.445,11.687,0l11.126,22.481l24.899,3.611c2.457,0.359,4.498,2.079,5.267,4.439   c0.769,2.36,0.13,4.947-1.649,6.681l-18.016,17.56l4.243,24.775c0.417,2.444-0.587,4.915-2.594,6.381   C75.371,300.828,74.021,301.245,72.672,301.245z M47.382,274.912c1.043,0,2.086,0.248,3.031,0.75l13.603,7.15l-2.594-15.135   c-0.359-2.112,0.339-4.269,1.877-5.769l11.003-10.729l-15.213-2.21c-2.125-0.306-3.957-1.636-4.908-3.559l-6.798-13.747   l-6.798,13.747c-0.952,1.923-2.783,3.253-4.902,3.559l-15.155,2.203l11.009,10.735c1.538,1.493,2.236,3.657,1.877,5.769   l-2.594,15.116l13.532-7.131C45.296,275.159,46.339,274.912,47.382,274.912z" fill="#0065fc" data-original="#1138f7" class=""/>
	<polygon style="" points="151.672,216.965 164.317,242.517 192.606,246.623 172.139,266.569 176.962,294.727    151.672,281.43 126.447,294.727 131.27,266.569 110.803,246.623 139.027,242.517  " fill="#0065fc" data-original="#1138f7" class=""/>
	<path style="" d="M176.962,301.245c-1.036,0-2.079-0.248-3.031-0.75l-22.253-11.7l-22.188,11.7   c-2.19,1.16-4.856,0.958-6.87-0.489c-2.008-1.46-3.011-3.937-2.594-6.381l4.25-24.775l-18.016-17.56   c-1.779-1.734-2.418-4.322-1.649-6.681c0.769-2.36,2.809-4.074,5.26-4.439l24.841-3.611l11.126-22.481   c2.203-4.445,9.484-4.445,11.687,0l11.126,22.481l24.899,3.611c2.457,0.359,4.498,2.079,5.267,4.439   c0.769,2.36,0.13,4.947-1.649,6.681l-18.016,17.56l4.243,24.775c0.417,2.444-0.587,4.915-2.594,6.381   C179.661,300.828,178.312,301.245,176.962,301.245z M151.672,274.912c1.043,0,2.086,0.248,3.031,0.75l13.603,7.15l-2.594-15.135   c-0.359-2.112,0.339-4.269,1.877-5.769l11.003-10.729l-15.213-2.21c-2.125-0.306-3.957-1.636-4.908-3.559l-6.798-13.747   l-6.798,13.747c-0.952,1.923-2.783,3.253-4.902,3.559l-15.155,2.203l11.009,10.735c1.538,1.493,2.236,3.657,1.877,5.769   l-2.594,15.116l13.532-7.131C149.586,275.159,150.629,274.912,151.672,274.912z" fill="#0065fc" data-original="#1138f7" class=""/>
	<polygon style="" points="255.962,216.965 268.607,242.517 296.896,246.623 276.429,266.569 281.253,294.727    255.962,281.43 230.737,294.727 235.561,266.569 215.094,246.623 243.317,242.517  " fill="#0065fc" data-original="#1138f7" class=""/>
	<path style="" d="M230.737,301.245c-1.349,0-2.692-0.417-3.826-1.238c-2.008-1.46-3.011-3.937-2.594-6.381   l4.25-24.775l-18.016-17.56c-1.779-1.734-2.418-4.322-1.649-6.681c0.769-2.36,2.809-4.074,5.26-4.439l24.841-3.611l11.126-22.481   c2.203-4.445,9.484-4.445,11.687,0l11.126,22.481l24.899,3.611c2.457,0.358,4.491,2.079,5.267,4.439   c0.763,2.36,0.13,4.947-1.649,6.681l-18.016,17.56l4.243,24.775c0.417,2.444-0.587,4.915-2.588,6.375   c-2.014,1.467-4.667,1.656-6.87,0.495l-22.253-11.7l-22.188,11.7C232.823,300.997,231.78,301.245,230.737,301.245z    M255.962,274.912c1.043,0,2.086,0.248,3.031,0.75l13.603,7.15l-2.588-15.135c-0.365-2.112,0.339-4.269,1.871-5.769l11.003-10.729   l-15.213-2.21c-2.125-0.306-3.957-1.636-4.908-3.559l-6.798-13.747l-6.798,13.747c-0.952,1.923-2.783,3.253-4.902,3.559   l-15.155,2.203l11.009,10.735c1.538,1.493,2.236,3.657,1.877,5.769l-2.594,15.116l13.532-7.131   C253.877,275.159,254.919,274.912,255.962,274.912z" fill="#0065fc" data-original="#1138f7" class=""/>
	<polygon style="" points="360.253,216.965 372.898,242.517 401.186,246.623 380.72,266.569 385.543,294.727    360.253,281.43 335.027,294.727 339.851,266.569 319.384,246.623 347.607,242.517  " fill="#0065fc" data-original="#1138f7" class=""/>
	<path style="" d="M335.034,301.245c-1.349,0-2.692-0.417-3.826-1.238c-2.014-1.46-3.018-3.93-2.594-6.381   l4.237-24.775l-18.016-17.56c-1.773-1.734-2.412-4.322-1.649-6.681c0.769-2.36,2.809-4.074,5.267-4.439l24.841-3.611l11.12-22.481   c2.203-4.445,9.484-4.439,11.687,0l11.126,22.488l24.899,3.611c2.457,0.358,4.491,2.079,5.267,4.439   c0.763,2.36,0.13,4.947-1.649,6.681l-18.016,17.56l4.243,24.775c0.417,2.444-0.587,4.915-2.588,6.375   c-2.021,1.467-4.673,1.656-6.864,0.495l-22.259-11.7l-22.181,11.7C337.113,300.997,336.07,301.245,335.034,301.245z    M360.253,274.912c1.043,0,2.079,0.248,3.031,0.75l13.61,7.15l-2.588-15.135c-0.365-2.112,0.339-4.269,1.871-5.769l11.003-10.729   l-15.213-2.21c-2.118-0.306-3.95-1.636-4.908-3.559l-6.805-13.747l-6.798,13.747c-0.952,1.923-2.783,3.253-4.908,3.559   l-15.155,2.203l11.009,10.735c1.532,1.493,2.236,3.657,1.871,5.769l-2.581,15.116l13.519-7.131   C358.16,275.159,359.21,274.912,360.253,274.912z" fill="#0065fc" data-original="#1138f7" class=""/>
	<path style="" d="M439.324,301.245c-1.349,0-2.692-0.417-3.826-1.238c-2.014-1.46-3.018-3.93-2.594-6.381   l4.237-24.775l-18.016-17.56c-1.773-1.734-2.412-4.322-1.649-6.681c0.769-2.36,2.809-4.074,5.267-4.439l24.841-3.611l11.12-22.481   c2.203-4.445,9.484-4.439,11.687,0l11.126,22.488l24.899,3.611c2.457,0.358,4.491,2.079,5.267,4.439   c0.763,2.36,0.13,4.947-1.649,6.681l-18.016,17.56l4.243,24.775c0.417,2.444-0.587,4.915-2.588,6.375   c-2.014,1.467-4.674,1.656-6.864,0.495l-22.259-11.7l-22.181,11.7C441.403,300.997,440.361,301.245,439.324,301.245z    M464.543,274.912c1.043,0,2.079,0.248,3.031,0.75l13.61,7.15l-2.588-15.135c-0.365-2.112,0.339-4.269,1.871-5.769l11.003-10.729   l-15.213-2.21c-2.118-0.306-3.95-1.636-4.908-3.559l-6.805-13.747l-6.798,13.747c-0.952,1.923-2.783,3.253-4.908,3.559   l-15.155,2.203l11.009,10.735c1.532,1.493,2.236,3.657,1.871,5.769l-2.581,15.116l13.519-7.131   C462.451,275.159,463.5,274.912,464.543,274.912z" fill="#0065fc" data-original="#1138f7" class=""/>
</g>
<g xmlns="http://www.w3.org/2000/svg">
</g>
<g xmlns="http://www.w3.org/2000/svg">
</g>
<g xmlns="http://www.w3.org/2000/svg">
</g>
<g xmlns="http://www.w3.org/2000/svg">
</g>
<g xmlns="http://www.w3.org/2000/svg">
</g>
<g xmlns="http://www.w3.org/2000/svg">
</g>
<g xmlns="http://www.w3.org/2000/svg">
</g>
<g xmlns="http://www.w3.org/2000/svg">
</g>
<g xmlns="http://www.w3.org/2000/svg">
</g>
<g xmlns="http://www.w3.org/2000/svg">
</g>
<g xmlns="http://www.w3.org/2000/svg">
</g>
<g xmlns="http://www.w3.org/2000/svg">
</g>
<g xmlns="http://www.w3.org/2000/svg">
</g>
<g xmlns="http://www.w3.org/2000/svg">
</g>
<g xmlns="http://www.w3.org/2000/svg">
</g>
</g></svg>
